<svg xmlns="http://www.w3.org/2000/svg" viewBox="0 0 18.53 18.53"><defs><style>.cls-1{fill:none;stroke:#094;stroke-miterlimit:10;}.cls-2{fill:#231815;}</style></defs><title>자산 2</title><g id="레이어_2" data-name="레이어 2"><g id="레이어_1-2" data-name="레이어 1"><circle class="cls-1" cx="9.27" cy="9.27" r="8.77"/><path class="cls-2" d="M4.28,6.24a.28.28,0,0,1,.16-.19A.34.34,0,0,1,4.68,6a.28.28,0,0,1,.22.15l2.34,3.7L9.55,6.18A.36.36,0,0,1,9.79,6a.47.47,0,0,1,.26,0,.42.42,0,0,1,.16.19.36.36,0,0,1-.06.27l-2.58,4.1v3.3a.36.36,0,0,1-.11.27.36.36,0,0,1-.23.08A.41.41,0,0,1,7,14.15a.44.44,0,0,1-.09-.27v-3.3L4.34,6.51A.29.29,0,0,1,4.28,6.24Z"/><path class="cls-2" d="M12.91,6.07A.32.32,0,0,1,13.14,6a.34.34,0,0,1,.35.36V12.1A2.08,2.08,0,0,1,13,13.57a2,2,0,0,1-1.6.66,2,2,0,0,1-1.6-.65,2,2,0,0,1-.52-1.39.33.33,0,0,1,.1-.27.32.32,0,0,1,.23-.09.35.35,0,0,1,.23.07.25.25,0,0,1,.11.22,1.53,1.53,0,0,0,.35,1.06,1.38,1.38,0,0,0,1.1.45,1.37,1.37,0,0,0,1.1-.45A1.69,1.69,0,0,0,12.81,12V6.34A.33.33,0,0,1,12.91,6.07Z"/></g></g></svg>