<svg xmlns="http://www.w3.org/2000/svg" viewBox="0 0 115.03 22.1"><defs><style>.cls-1{fill:#231815;}</style></defs><title>자산 1</title><g id="레이어_2" data-name="레이어 2"><g id="레이어_1-2" data-name="레이어 1"><path class="cls-1" d="M0,21.62v-.74c2.2,0,2.82-.74,2.82-2.2V2.88C2.82,1.45,2.2,1,0,1V.27H11.05c3.3,0,6,1.93,6,5.34,0,3.86-2.71,5.94-6.27,5.94H4.69v7.13c0,1.46.66,2.2,3.09,2.2v.74ZM4.69,10.81h5.62C13.45,10.81,15,8,15,5.61A4.45,4.45,0,0,0,10.34,1H6.8c-1.45,0-2.11.44-2.11,1.87Z"/><path class="cls-1" d="M33.78,20.64A2.82,2.82,0,0,1,31.4,22.1c-1.34,0-1.6-1-1.6-2a6.86,6.86,0,0,1-5.08,2c-2.88,0-4.19-1.52-4.19-3.45C20.53,16,23.62,14,29.8,13V10.93c0-1.78-.87-3-2.65-3-2.26,0-3.15.62-3.68,2.14-.24.65-.57,1.25-1.31,1.25A1.13,1.13,0,0,1,21,10.07c0-1.49,2.44-2.82,6.33-2.82,2.58,0,4.28,1.36,4.28,3.95v8.22c0,.89.09,1.61.56,1.61a1.86,1.86,0,0,0,1.37-.68Zm-4-6.8c-4,.45-7.31,2.08-7.31,4.75,0,1.34,1,2.32,2.79,2.32a5.68,5.68,0,0,0,4.52-1.69Z"/><path class="cls-1" d="M35.71,21.62v-.74c1.19,0,2-.39,2-1.54V10.22c0-1-.3-1.37-1.81-1.37l-.15-.44L39.45,7v3.68C41.29,9.06,43.58,7,45.54,7a1.54,1.54,0,0,1,1.55,1.4,1.51,1.51,0,0,1-1.55,1.36c-1,0-1.19-.8-1.87-.8-.86,0-2.7,1.54-4.22,2.79v7.64c0,1.15.45,1.54,2,1.54v.74Z"/><path class="cls-1" d="M63.45,20.64a2.79,2.79,0,0,1-2.37,1.46c-1.34,0-1.6-1-1.6-2a6.86,6.86,0,0,1-5.08,2c-2.89,0-4.19-1.52-4.19-3.45C50.21,16,53.3,14,59.48,13V10.93c0-1.78-.87-3-2.65-3-2.26,0-3.15.62-3.68,2.14-.24.65-.57,1.25-1.31,1.25a1.13,1.13,0,0,1-1.19-1.28c0-1.49,2.44-2.82,6.33-2.82,2.58,0,4.28,1.36,4.28,3.95v8.22c0,.89.09,1.61.56,1.61a1.86,1.86,0,0,0,1.37-.68Zm-4-6.8c-4,.45-7.31,2.08-7.31,4.75,0,1.34,1,2.32,2.79,2.32a5.68,5.68,0,0,0,4.52-1.69Z"/><path class="cls-1" d="M65.87,21.62v-.74c1.45,0,2-.57,2-1.81V3.18c0-.89-.45-1.4-2-1.4l-.12-.41L69.61,0V19.07c0,1.24.59,1.81,2.08,1.81v.74Z"/><path class="cls-1" d="M74.51,21.62v-.74c1.46,0,2-.57,2-1.81V3.18c0-.89-.45-1.4-2-1.4l-.12-.41L78.25,0V19.07c0,1.24.6,1.81,2.08,1.81v.74Z"/><path class="cls-1" d="M96.82,20.64a2.82,2.82,0,0,1-2.38,1.46c-1.34,0-1.6-1-1.6-2a6.86,6.86,0,0,1-5.08,2c-2.88,0-4.19-1.52-4.19-3.45C83.57,16,86.66,14,92.84,13V10.93c0-1.78-.86-3-2.65-3-2.25,0-3.14.62-3.68,2.14-.24.65-.56,1.25-1.3,1.25A1.12,1.12,0,0,1,84,10.07c0-1.49,2.43-2.82,6.32-2.82,2.59,0,4.28,1.36,4.28,3.95v8.22c0,.89.09,1.61.56,1.61a1.85,1.85,0,0,0,1.37-.68Zm-4-6.8c-4,.45-7.31,2.08-7.31,4.75,0,1.34,1,2.32,2.79,2.32a5.68,5.68,0,0,0,4.52-1.69Z"/><path class="cls-1" d="M105.35,7.43v.74c-1.22,0-1.73.12-1.73.47a1,1,0,0,0,.27.54l3.3,4.1,3.27-4a1.1,1.1,0,0,0,.26-.57c0-.35-.5-.5-1.66-.5V7.43h5.44v.74a3.63,3.63,0,0,0-3.18,1.22l-3.69,4.48,4.85,6a2.85,2.85,0,0,0,2.55,1v.74h-6.24v-.74c1.31,0,1.75-.12,1.75-.42a1.27,1.27,0,0,0-.26-.56l-3.71-4.69-3.48,4.18a1.78,1.78,0,0,0-.39.9c0,.44.54.59,1.76.59v.74H98.84v-.74c1.37,0,2.14-.18,3.54-1.81l3.71-4.46L101.9,9.44a2.88,2.88,0,0,0-2.58-1.27V7.43Z"/></g></g></svg>