<svg xmlns="http://www.w3.org/2000/svg" viewBox="0 0 127.51 19.17"><defs><style>.cls-1{fill:#fff;}.cls-2{fill:none;stroke:#b090c1;stroke-miterlimit:10;}</style></defs><title>자산 1</title><g id="레이어_2" data-name="레이어 2"><g id="레이어_1-2" data-name="레이어 1"><path class="cls-1" d="M6.35,9.13v5.25H4.76V9.13L0,1.32H1.74L5.53,7.67h0L9.37,1.32H11.1Z"/><path class="cls-1" d="M15.57,14.63a4.67,4.67,0,0,1-1.3-.16,3.32,3.32,0,0,1-1-.44,2.83,2.83,0,0,1-.74-.68,3.45,3.45,0,0,1-.48-.86,3,3,0,0,1-.19-.77,6.56,6.56,0,0,1-.06-.92V5.11H13.3v5.68a3.45,3.45,0,0,0,.21,1.29,1.84,1.84,0,0,0,.75.92,2.4,2.4,0,0,0,1.34.34A2.32,2.32,0,0,0,17,13a2,2,0,0,0,.74-1,3.38,3.38,0,0,0,.17-1.18V5.11H19.4v5.7a6,6,0,0,1,0,.87,4.13,4.13,0,0,1-.17.75,3.64,3.64,0,0,1-.48.89,3,3,0,0,1-.76.69,3.65,3.65,0,0,1-1,.46A5,5,0,0,1,15.57,14.63Z"/><path class="cls-1" d="M24,16.46a2.65,2.65,0,0,1-.73,2,3.21,3.21,0,0,1-2.32.72,5.32,5.32,0,0,1-.81-.06A3.34,3.34,0,0,1,19.6,19V17.69a5.6,5.6,0,0,0,.59.12,3.86,3.86,0,0,0,.6,0,1.92,1.92,0,0,0,1.33-.38,1.56,1.56,0,0,0,.4-1.19V5.11H24ZM22.48,3V1.26H24V3Z"/><path class="cls-1" d="M27.12,3V1.26h1.51V3Zm0,11.43V5.11h1.51v9.27Z"/><path class="cls-1" d="M33.16,6.4h0a4.57,4.57,0,0,1,.56-.6,3.75,3.75,0,0,1,.69-.49,4,4,0,0,1,3-.27,2.57,2.57,0,0,1,1,.57,2.76,2.76,0,0,1,.65,1,4.33,4.33,0,0,1,.24,1.54v6.21H37.8v-6a2.6,2.6,0,0,0-.46-1.73A1.71,1.71,0,0,0,36,6.16a3,3,0,0,0-1.52.44,4.07,4.07,0,0,0-1.26,1.19v6.59H31.7V5.11h1.17Z"/><path class="cls-1" d="M42.89,1.32h1.69L42.86,6.14h-1.4Z"/><path class="cls-1" d="M47.13,7.58a1.08,1.08,0,0,0,.16.62,1.14,1.14,0,0,0,.44.4,3.06,3.06,0,0,0,.63.25L49.1,9c.35.08.68.17,1,.26a3,3,0,0,1,.86.43,2,2,0,0,1,.64.76,2.85,2.85,0,0,1,.25,1.26A2.73,2.73,0,0,1,51.56,13a2.5,2.5,0,0,1-.77.91,3.54,3.54,0,0,1-1.19.56,5.6,5.6,0,0,1-1.52.19,8.7,8.7,0,0,1-.93-.05c-.27,0-.52-.09-.73-.14s-.39-.11-.54-.17l-.37-.17V12.83a7.2,7.2,0,0,0,1.14.37,5.37,5.37,0,0,0,1.25.14,4,4,0,0,0,1-.1,2.3,2.3,0,0,0,.75-.29,1.44,1.44,0,0,0,.48-.47,1.35,1.35,0,0,0,.16-.67,1.16,1.16,0,0,0-.56-1.07,2.37,2.37,0,0,0-.6-.27l-.71-.2c-.33-.07-.66-.15-1-.25a3.42,3.42,0,0,1-.91-.41,2,2,0,0,1-.67-.72,2.36,2.36,0,0,1-.25-1.17,2.75,2.75,0,0,1,.26-1.26,2.5,2.5,0,0,1,.71-.89,3.06,3.06,0,0,1,1-.53,4.36,4.36,0,0,1,1.26-.18A6.47,6.47,0,0,1,50.26,5a7.37,7.37,0,0,1,1.2.37V6.67A10.38,10.38,0,0,0,50.3,6.3a6.07,6.07,0,0,0-1.21-.15,3.22,3.22,0,0,0-.89.11,1.66,1.66,0,0,0-.61.3,1,1,0,0,0-.35.45A1.48,1.48,0,0,0,47.13,7.58Z"/><path class="cls-1" d="M59.92,14.38H58.33V1.32H62a10,10,0,0,1,1.5.1,6,6,0,0,1,1.26.3A3.63,3.63,0,0,1,66.48,3,3.4,3.4,0,0,1,67.09,5a3.64,3.64,0,0,1-.4,1.75,3.38,3.38,0,0,1-1.14,1.27,5.45,5.45,0,0,1-1.83.76,10.09,10.09,0,0,1-2.44.26c-.44,0-.89,0-1.36-.06Zm0-6.82.68.06.66,0a8.66,8.66,0,0,0,1.91-.18A3.86,3.86,0,0,0,64.46,7a2.1,2.1,0,0,0,.73-.82A2.57,2.57,0,0,0,65.41,5,2,2,0,0,0,65,3.78,2.2,2.2,0,0,0,64,3a3.76,3.76,0,0,0-1-.22,9.61,9.61,0,0,0-1.27-.07H59.92Z"/><path class="cls-1" d="M84.41,6.34H84.3a5.36,5.36,0,0,0-1.06.1,4.37,4.37,0,0,0-1,.29,3.74,3.74,0,0,0-.82.5,2.52,2.52,0,0,0-.61.69v6.46H79.33V5.11H80.5l.29,1.47h0a3.44,3.44,0,0,1,.55-.67,4.06,4.06,0,0,1,.74-.55A3.6,3.6,0,0,1,83,5a3.81,3.81,0,0,1,1-.14h.38Z"/><path class="cls-1" d="M90.92,14.4a2.34,2.34,0,0,1-.6.15,6.14,6.14,0,0,1-.95.08,4,4,0,0,1-1.27-.18,2.35,2.35,0,0,1-.9-.52,2.11,2.11,0,0,1-.53-.81,3,3,0,0,1-.18-1.07V6.41H84.71V5.11h1.78V2.57H88V5.11h2.77v1.3H88v5.41a1.87,1.87,0,0,0,.09.59,1.32,1.32,0,0,0,.29.48,1.56,1.56,0,0,0,.52.31,2.37,2.37,0,0,0,.75.11,5,5,0,0,0,.64-.05,3.77,3.77,0,0,0,.62-.13Z"/><path class="cls-1" d="M98.35,1.44a5.8,5.8,0,0,0-.64-.09l-.61,0a2.86,2.86,0,0,0-.91.13,1.6,1.6,0,0,0-.68.4,1.92,1.92,0,0,0-.42.73,3.57,3.57,0,0,0-.15,1.1V5.11h2.77v1.3H94.94v8H93.43v-8H91.8V5.11h1.63V3.69A4.64,4.64,0,0,1,93.7,2,3.15,3.15,0,0,1,94.43.86,3,3,0,0,1,95.54.21,4.3,4.3,0,0,1,96.9,0a7.71,7.71,0,0,1,.87.05,3.15,3.15,0,0,1,.58.11Z"/><path class="cls-1" d="M110.09,14.38V.24h1.51V14.38Z"/><path class="cls-1" d="M114.69,3V1.26h1.51V3Zm0,11.43V5.11h1.51v9.27Z"/><ellipse class="cls-2" cx="123.24" cy="9.67" rx="3.78" ry="4.27"/><ellipse class="cls-2" cx="103.37" cy="9.67" rx="3.78" ry="4.27"/><ellipse class="cls-2" cx="72.68" cy="9.67" rx="3.78" ry="4.27"/></g></g></svg>